<svg width="590" height="759" viewBox="0 0 590 759" fill="none" xmlns="http://www.w3.org/2000/svg">
<path fill-rule="evenodd" clip-rule="evenodd" d="M364.508 71.1131C364.508 71.1131 371.064 74.5059 371.064 77.236C371.064 79.9661 398.887 70.1015 400.506 66.9251C402.124 63.7487 397.117 61.9154 397.117 52.1749C397.117 42.4344 405.206 26.1214 397.117 14.8457C389.027 3.56991 373.324 -0.941452 360.242 7.73987C347.161 16.4212 345.482 33.2293 345.482 33.2293L347.836 38.4627L342.18 49.677L345.482 52.1749V56.9895L347.836 57.7035L347.25 59.3992C347.25 59.3992 349.51 59.8748 349.51 60.9725C349.51 62.0702 348.689 70.3354 351.859 70.3354C355.029 70.3354 364.508 71.1131 364.508 71.1131Z" fill="white" stroke="#090909" stroke-width="2.7216" stroke-linecap="round" stroke-linejoin="round"/>
<path fill-rule="evenodd" clip-rule="evenodd" d="M348.077 20.3318C348.077 20.3318 357.786 17.0423 360.065 19.2161C362.344 21.3899 355.831 26.0159 360.065 30.7633C364.299 35.5108 364.299 40.4507 364.299 40.4507C364.299 40.4507 366.356 40.4313 366.356 39.5103C366.356 35.5632 367.174 32.2626 371.504 30.7633C375.834 29.2641 381.911 36.741 380.087 41.7973C378.264 46.8536 386.323 51.9591 386.323 51.9591L398.694 50.4473C398.694 50.4473 408.729 16.5309 394.206 10.1348C392.101 -0.362478 374.589 -1.70295 364.299 1.59575C354.008 4.89446 344.433 16.612 344.433 16.612L348.077 20.3318Z" fill="black"/>
<path fill-rule="evenodd" clip-rule="evenodd" d="M381.19 714.96C381.19 714.96 373.288 722.041 369.989 723.963C362.144 728.536 356.379 729.249 351.839 731.161C342.165 735.236 357.88 741.689 364.68 741.689C371.48 741.689 388.289 743.744 395.579 741.689C402.868 739.635 414.886 741.689 414.886 741.689C414.886 741.689 420.847 741.135 420.847 737.26C420.847 733.386 418.281 730.602 418.281 729.692C418.281 728.781 421.677 720.988 418.281 716.497C397.168 722.041 381.19 714.96 381.19 714.96Z" fill="#060606" stroke="white" stroke-width="1.944"/>
<path fill-rule="evenodd" clip-rule="evenodd" d="M351.839 731.161C342.165 735.236 356.935 740.776 364.68 741.689C372.425 742.603 388.289 743.744 395.579 741.689C402.868 739.635 414.886 741.689 414.886 741.689C414.886 741.689 420.847 741.135 420.847 737.26C420.847 733.386 418.281 730.602 418.281 729.692C418.281 729.299 412.999 738.283 395.579 737.26C377.263 738.308 361.999 738.308 351.839 731.161Z" fill="white" stroke="#090909" stroke-width="2.592"/>
<path fill-rule="evenodd" clip-rule="evenodd" d="M363.925 692.729C363.925 692.729 357.498 707.168 352.675 713.82C347.852 720.472 337.787 720.969 339.048 725.967C340.31 730.965 365.906 725.967 365.906 725.967C365.906 725.967 386.227 712.706 393.536 706.954C400.846 701.202 388.996 695.554 387.29 688.51C385.584 681.467 363.925 692.729 363.925 692.729Z" fill="#060606" stroke="white" stroke-width="1.944"/>
<path fill-rule="evenodd" clip-rule="evenodd" d="M339.084 724.252C338.911 724.765 338.887 725.33 339.048 725.967C340.31 730.965 365.906 725.967 365.906 725.967C365.906 725.967 386.227 712.706 393.536 706.954C397.652 703.715 395.694 700.51 392.892 697.07C390.718 694.399 374.521 728.288 339.084 724.252Z" fill="white" stroke="#090909" stroke-width="2.592"/>
<path fill-rule="evenodd" clip-rule="evenodd" d="M330.709 352.713C330.709 352.713 280.909 520.286 280.909 549.608C280.909 578.929 353.076 648.737 353.076 685.8C353.076 722.863 398.52 708.394 396.54 666.226C394.56 624.059 353.076 549.608 353.076 549.608L409.047 415.745L419.752 409.988L433.001 356.126L330.709 352.713Z" fill="white" stroke="#090909" stroke-width="4.32"/>
<path fill-rule="evenodd" clip-rule="evenodd" d="M360.382 425.403L360.382 524.184L370.363 565.237L384.84 716.649C395.688 722.441 406.143 722.441 416.203 716.649C426.264 710.857 435.919 662.658 445.168 572.05L436.977 546.857L431.294 438.147L441.23 412.728L435.232 356.101" fill="white"/>
<path d="M360.382 425.403L360.382 524.184L370.363 565.237L384.84 716.649C395.688 722.441 406.143 722.441 416.203 716.649C426.264 710.857 435.919 662.658 445.168 572.05L436.977 546.857L431.294 438.147L441.23 412.728L435.232 356.101" stroke="#090909" stroke-width="4.32"/>
<path fill-rule="evenodd" clip-rule="evenodd" d="M314.134 381.78C295.848 355.922 301.248 301.133 306.221 252.548C311.194 203.962 344.365 157.199 350.426 120.57C351.565 113.688 351.795 99.5754 355.821 94.1862C368.019 77.86 397.509 51.4255 417.577 50.6442C426.142 50.3108 428.767 71.6764 434.507 72.6474C458.138 76.6448 457.316 174.703 457.316 174.703L440.817 356.126C440.817 356.126 440.817 390.909 402.775 389.081C364.733 387.253 332.421 407.638 314.134 381.78Z" fill="#060606" stroke="white" stroke-width="3.24" stroke-linejoin="round"/>
<path d="M375.12 326.326C375.12 326.326 375.12 340.616 385.549 346.122C395.977 351.628 396.18 349.881 396.18 352.713" stroke="white" stroke-width="2.7"/>
<path d="M372.6 327.96C372.6 327.96 372.6 342.25 383.029 347.756C393.457 353.261 395.671 353.462 395.671 353.462" stroke="white" stroke-width="3.6" stroke-dasharray="1.08"/>
<path fill-rule="evenodd" clip-rule="evenodd" d="M353.076 111.315C353.076 111.315 386.42 77.9097 409.71 94.1862C433.001 110.463 457.344 137.738 457.344 137.738C457.344 137.738 474.076 142.018 479.095 120.75C481.587 110.19 463.947 80.513 451.088 63.872C443.855 54.5124 436.471 57.1987 432.307 53.3148C420.74 42.5257 412.098 50.6404 412.098 50.6404C412.098 50.6404 431.022 59.0903 415.829 63.872C400.636 68.6538 362.588 72.1703 357.699 84.2178C352.81 96.2652 353.076 111.315 353.076 111.315Z" fill="#060606" stroke="white" stroke-width="3.24" stroke-linejoin="round"/>
<path fill-rule="evenodd" clip-rule="evenodd" d="M433.001 59.312C433.001 59.312 442.751 68.845 412.098 73.8162C381.445 78.7875 375.679 83.8898 375.679 83.8898" fill="#060606"/>
<path d="M433.001 59.312C433.001 59.312 442.751 68.845 412.098 73.8162C381.445 78.7875 375.679 83.8898 375.679 83.8898" stroke="white" stroke-width="1.8" stroke-linecap="round" stroke-linejoin="round"/>
<path fill-rule="evenodd" clip-rule="evenodd" d="M448.2 78.3C460.945 92.1749 458.054 117.682 463.132 117.682C468.211 117.682 466.241 106.827 466.241 106.827" fill="#060606"/>
<path d="M448.2 78.3C460.945 92.1749 458.054 117.682 463.132 117.682C468.211 117.682 466.241 106.827 466.241 106.827" stroke="white" stroke-width="1.8" stroke-linecap="round" stroke-linejoin="round"/>
<path fill-rule="evenodd" clip-rule="evenodd" d="M314.134 296.874H295.796L282.784 303.353L275.721 312.749L274.297 323.81C274.297 323.81 281.864 322.135 282.795 317.484C285.334 315.136 287.656 312.059 287.656 312.059L295.796 311.139L284.901 324.036C284.901 324.036 274.687 326.462 272.249 326.462C269.812 326.462 272.491 330.829 274.297 332.505C276.103 334.182 282.784 334.863 282.784 334.863L288.485 338.093H303.649L326.617 320.459L314.134 296.874Z" fill="white" stroke="#090909" stroke-width="4.32"/>
<path fill-rule="evenodd" clip-rule="evenodd" d="M364.144 149.648C364.144 149.648 375.54 109.913 400.222 107.686C424.903 105.458 440.76 134.16 440.76 161.497C440.76 188.834 456.963 291.24 456.963 291.24L325.571 321.389C325.571 321.389 317.105 313.768 315.125 308.646C313.144 303.524 315.125 294.368 315.125 294.368L400.222 258.627L364.144 149.648Z" fill="#060606" stroke="white" stroke-width="3.24" stroke-linejoin="round"/>
<path d="M347.143 416.257L360.372 443.913" stroke="#090909" stroke-width="3.6" stroke-linecap="round" stroke-linejoin="round"/>
<path fill-rule="evenodd" clip-rule="evenodd" d="M422.743 191.32C412.908 189.48 412.098 175.918 412.098 175.918C412.098 175.918 417.506 154.224 410.07 143.525C402.634 132.826 391.035 132.479 376.97 133.229C362.905 133.979 357.198 154.143 357.198 154.143C354.891 161.458 353.738 165.949 353.738 167.613C353.738 169.277 354.422 170.558 355.79 171.454C350.562 176.019 347.704 179.105 347.217 180.711C346.73 182.318 348.654 183.788 352.989 185.122C352.978 186.553 352.978 187.579 352.989 188.198C352.995 188.526 352.463 189.758 352.47 190.005C352.496 190.843 354.22 191.052 354.264 191.811C354.304 192.508 353.231 193.495 353.288 194.126C353.345 194.772 354.722 195.419 354.796 195.994C353.292 199.928 353.787 204.919 358.816 205.049C363.846 205.179 373.604 205.179 381.36 202.003C389.116 198.827 389.116 218.851 389.116 218.851" fill="white"/>
<path d="M422.743 191.32C412.908 189.48 412.098 175.918 412.098 175.918C412.098 175.918 417.506 154.224 410.07 143.525C402.634 132.826 391.035 132.479 376.97 133.229C362.905 133.979 357.198 154.143 357.198 154.143C354.891 161.458 353.738 165.949 353.738 167.613C353.738 169.277 354.422 170.558 355.79 171.454C350.562 176.019 347.704 179.105 347.217 180.711C346.73 182.318 348.654 183.788 352.989 185.122C352.978 186.553 352.978 187.579 352.989 188.198C352.995 188.526 352.463 189.758 352.47 190.005C352.496 190.843 354.22 191.052 354.264 191.811C354.304 192.508 353.231 193.495 353.288 194.126C353.345 194.772 354.722 195.419 354.796 195.994C353.292 199.928 353.787 204.919 358.816 205.049C363.846 205.179 373.604 205.179 381.36 202.003C389.116 198.827 389.116 218.851 389.116 218.851" stroke="#060606" stroke-width="1.8" stroke-linecap="round" stroke-linejoin="round"/>
<path d="M389.554 191.358C389.554 191.358 389.637 194.394 388.324 197.082C387.01 199.771 378.97 202.806 378.97 202.806" stroke="#090909" stroke-width="1.5552" stroke-linecap="round" stroke-linejoin="round"/>
<path d="M392.14 167.837C392.508 171.969 389.551 175.625 388.74 177.148C387.322 179.81 386.526 181.479 385.549 181.479C383.245 181.479 383.112 179.388 383.112 179.388" stroke="#090909" stroke-width="1.5552" stroke-linecap="round" stroke-linejoin="round"/>
<path d="M383.112 175.918C385.555 173.974 383.112 171.694 383.112 171.694C383.112 171.694 386.69 166.561 389.116 168.259" stroke="#090909" stroke-width="1.5552" stroke-linecap="round" stroke-linejoin="round"/>
<path d="M357.85 190.318C355.242 191.666 353.944 191.378 353.944 191.378C353.944 191.378 354.301 191.904 354.099 192.309C354.31 192.438 357.087 191.695 357.85 190.318Z" fill="#090909"/>
<path fill-rule="evenodd" clip-rule="evenodd" d="M359.436 150.714C359.436 150.714 359.043 157.05 365.147 157.05C365.147 161.277 366.997 165.161 373.628 161.277C374.33 164.105 372.665 169.525 381.982 168.501C384.719 160.639 394.679 163.722 391.714 172.741C392.208 176.897 396.822 179.669 401.599 175.865C405.888 183.12 413.158 179.221 412.674 175.865C418.443 175.424 423.299 170.79 419.847 166.521C423.334 166.965 428.548 164.541 424.923 158.623C429.535 154.071 425.794 148.819 422.153 148.819C423.255 143.911 419.361 137.268 415.014 138.455C415.844 134.633 411.282 128.05 403.659 128.91C404.3 122.123 391.714 119.207 388.844 124.667C387.031 121.486 377.356 120.483 376.042 125.423C372.084 121.964 361.138 121.964 361.138 131.353C353.79 133.057 351.006 134.918 353.76 144.043C348.01 147.385 350.807 151.668 353.76 153.694C356.712 155.719 359.436 150.714 359.436 150.714Z" fill="white" stroke="#090909" stroke-width="2.16" stroke-linejoin="round"/>
<path d="M358.997 142.92C358.997 142.92 357.609 135.529 366.868 136.66C364.819 129.052 375.178 130.055 375.178 136.099" stroke="#090909" stroke-width="1.5552" stroke-linecap="round" stroke-linejoin="round"/>
<path d="M404.396 144.09C404.396 144.09 411.175 140.836 412.48 150.073C419.297 146.125 421.01 156.39 415.172 157.954" stroke="#090909" stroke-width="1.5552" stroke-linecap="round" stroke-linejoin="round"/>
<path d="M367.626 147.05C367.626 140.356 376.281 140.702 375.853 147.05C378.87 144.657 387.59 145.33 382.515 153.389C388.883 148.75 392.014 160.028 386.371 162.194" stroke="#090909" stroke-width="1.5552" stroke-linecap="round" stroke-linejoin="round"/>
<path d="M392.509 153.271C392.509 146.577 401.164 146.923 400.736 153.271C403.753 150.878 412.473 151.551 407.398 159.61C413.766 154.971 416.897 166.249 411.255 168.415" stroke="#090909" stroke-width="1.5552" stroke-linecap="round" stroke-linejoin="round"/>
<path d="M382.371 142.093C378.204 138.375 383.227 133.275 386.941 137.063C387.127 133.889 392.391 128.931 394.588 136.511C395.238 130.041 403.997 134.391 402.211 139.044" stroke="#090909" stroke-width="1.5552" stroke-linecap="round" stroke-linejoin="round"/>
<path fill-rule="evenodd" clip-rule="evenodd" d="M489.084 621.806L513.673 719.642C513.673 719.642 518.902 725.486 522.116 725.486C525.33 725.486 532.708 719.642 532.708 719.642L541.56 618.566L489.084 621.806Z" fill="white" stroke="#090909" stroke-width="4.32"/>
<path fill-rule="evenodd" clip-rule="evenodd" d="M511.199 717.641C511.199 717.641 497.846 730.318 492.775 732.907C487.705 735.497 479.777 734.518 477.319 736.617C474.86 738.716 473.21 742.081 476.22 743.612C479.229 745.144 502.094 748.132 509.91 743.612C517.726 739.093 521.331 739.093 521.331 739.093L520.83 745.047H534.887L535.297 736.617C535.297 736.617 538.187 735.206 539.227 732.972C539.878 731.575 538.648 726.346 535.537 717.285C535.333 716.69 534.915 715.507 534.122 715.817C533.301 718.258 527.86 720.037 523.312 720.267C515.823 720.645 511.199 717.641 511.199 717.641Z" fill="white" stroke="#090909" stroke-width="2.592"/>
<path fill-rule="evenodd" clip-rule="evenodd" d="M434.507 634.036L449.716 725.337C449.716 725.337 446.077 731.693 457.603 734.096C469.129 736.499 472.56 726.216 472.56 726.216L476.308 634.036H434.507Z" fill="white" stroke="#090909" stroke-width="4.32"/>
<path fill-rule="evenodd" clip-rule="evenodd" d="M447.701 725.486C446.879 725.486 444.74 728.236 443.317 729.457C437.244 734.668 432.841 738.014 430.107 739.495C425.044 742.236 417.129 741.2 414.674 743.422C412.22 745.645 410.572 749.206 413.577 750.828C416.581 752.449 434.003 759.505 447.413 753.059C455.939 749.635 460.353 749.338 460.353 749.338V754.748H474.389V747.002C474.389 747.002 477.763 744.491 478.801 742.126C479.839 739.762 473.528 726.216 472.56 726.216C471.591 726.216 472.334 726.753 471.955 726.97C468.127 729.153 464.26 730.123 460.353 729.879C457.315 729.689 454.341 728.901 451.433 727.513C450.231 726.94 448.522 725.486 447.701 725.486Z" fill="white" stroke="#090909" stroke-width="2.592"/>
<path fill-rule="evenodd" clip-rule="evenodd" d="M427.064 366.926L404.108 461.643L390.764 638.845C390.764 638.845 415.562 641.109 438.027 642.912C435.115 653.613 493 652.881 503.467 642.912C516.427 642.73 539.583 641.388 539.583 641.388C539.583 641.388 549.993 654.214 579.83 630.883C579.83 609.013 527.93 371.7 527.93 371.7L427.064 366.926Z" fill="#060606" stroke="white" stroke-width="3.24" stroke-linejoin="round"/>
<path fill-rule="evenodd" clip-rule="evenodd" d="M386.114 239.36C386.114 239.36 398.916 349.189 424.282 380.426C404.933 446.286 412.532 482.119 409.71 521.009C406.889 559.898 406.834 599.462 406.834 599.462C406.834 599.462 451.351 607.329 471.113 602.304C495.456 596.115 511.393 577.176 525.634 579.107C568.648 584.94 587.078 570.728 587.078 570.728L541.56 351.662C541.56 351.662 491.091 226.24 479.7 210.788C468.309 195.336 428.212 182.355 428.212 182.355L378.688 219.198L386.114 239.36Z" fill="white" stroke="#090909" stroke-width="4.32"/>
<path fill-rule="evenodd" clip-rule="evenodd" d="M404.207 231.237C404.207 231.237 431.725 209.584 449.958 218.71C468.19 227.836 474.596 265.253 474.596 265.253L433.001 352.713L411 360.385L404.207 231.237Z" fill="#060606"/>
<path d="M488.811 362.154C469.035 367.616 449.534 371.165 430.307 372.803C426.294 373.145 419.567 382.812 419.567 388.387C419.567 393.961 418.304 461.731 418.304 461.731L433.001 455.557C433.001 455.557 428.666 389.959 431.416 388.387C432.72 387.641 463.468 389.589 503.074 375.479C512.912 371.973 525.932 365.967 545.154 356.101C546.864 355.223 540.927 341.161 540.927 341.161C540.927 341.161 524.665 352.252 488.811 362.154Z" fill="#2A2727"/>
<path fill-rule="evenodd" clip-rule="evenodd" d="M428.073 369.36L439.354 366.926L442.751 392.281L434.237 393.926L428.073 369.36Z" fill="white" stroke="#090909" stroke-width="3.24" stroke-linejoin="round"/>
<path fill-rule="evenodd" clip-rule="evenodd" d="M524.309 342.676L532.049 339.845L536.75 364.241L530.901 366.249L524.309 342.676Z" fill="white" stroke="#090909" stroke-width="3.24" stroke-linejoin="round"/>
<path d="M101.216 628.484C152.304 626.341 281.02 434 281.02 434C281.02 434 297.434 403.993 301.429 416.257C303.278 421.932 314.134 434 314.134 434C314.134 434 330.93 525.954 314.761 525.954C298.592 525.954 316.875 488.055 316.875 453.221" stroke="#060606" stroke-width="7.2" stroke-linecap="round" stroke-linejoin="round"/>
<path fill-rule="evenodd" clip-rule="evenodd" d="M82 632.986C82 632.986 87.3163 626.496 91.586 631.191C91.5021 624.679 99.9755 623 99.9755 623L101.216 632.091C101.216 632.091 95.3512 635.828 91.586 631.191C94.1086 636.291 87.6274 639.296 87.6274 639.296L82 632.986Z" stroke="#090909" stroke-width="2.592" stroke-linecap="round" stroke-linejoin="round"/>
<path fill-rule="evenodd" clip-rule="evenodd" d="M58.9782 593.816C65.0533 588.49 57.1827 569.16 57.1827 569.16L44.9304 588.545" fill="white"/>
<path d="M58.9782 593.816C65.0533 588.49 57.1827 569.16 57.1827 569.16L44.9304 588.545" stroke="#090909" stroke-width="2.592" stroke-linecap="round" stroke-linejoin="round"/>
<path fill-rule="evenodd" clip-rule="evenodd" d="M173.906 631.319C166.19 629.176 153.125 628.434 132.929 634.643C105.521 643.07 112.371 637.131 88.4757 639.474C78.1964 633.225 73.0354 608.427 73.0354 608.427C73.0354 608.427 69.9208 592.692 59.439 589.554C48.9572 586.415 40.6377 585.848 31.4881 592.753C22.3384 599.658 25.0938 613.895 25.0938 613.895C25.0938 613.895 12.9597 618.138 5.86284 618.138C-1.23398 618.138 1.55922 627.108 8.48892 630.76C15.4186 634.411 28.8633 628.629 29.8176 630.76C30.772 632.891 0.78125 633.881 12.392 639.474C24.0027 645.067 35.49 638.8 37.5927 643.07C39.6954 647.341 34.0248 654.926 34.0248 667.492C34.0248 680.059 37.5927 681.109 37.5927 687.946C37.5927 697.2 21.0645 711.122 20.4919 712.679C12.8139 733.548 34.095 748.287 42.061 739.001C47.144 733.076 30.0471 729.84 32.4216 722.994C34.3922 717.312 49.9736 707.777 51.1627 707.569C67.4381 704.727 114.821 687.958 138.786 687.958C162.75 687.958 191.633 719.01 189.683 736.587C181.209 740.355 180.191 740.968 180.678 748.321C181.165 755.674 200.939 752.222 200.939 752.222C200.939 752.222 204.253 747.823 204.253 739.001C204.253 730.178 198.857 719.694 202.632 712.578C206.407 705.462 189.697 695.282 196.026 682.853C202.355 670.425 196.026 658.263 196.026 658.263C196.026 658.263 193.396 636.732 173.906 631.319Z" fill="white" stroke="#090909" stroke-width="2.592" stroke-linecap="round" stroke-linejoin="round"/>
<path d="M86.6967 639.729C85.7719 640.502 75.9209 648.792 63.7928 652.955C50.9639 657.359 35.8094 657.61 34.3577 656.957C31.7467 653.925 32.9633 649.802 35.9292 649.57C36.9789 649.57 49.9985 649.861 61.1414 646.072C72.4151 642.238 81.812 634.319 82.5978 633.662C85.5851 631.164 90.5045 636.546 86.6967 639.729Z" fill="#060606"/>
<path d="M30.1158 601.423C30.1158 601.423 35.5963 601.423 37.9338 605.804" stroke="#060606" stroke-width="2.592" stroke-linecap="round"/>
<path d="M40.7281 657.433C40.9925 660.42 40.2756 662.18 38.0396 662.18V657.433" fill="black"/>
<path d="M40.7281 657.433C40.9925 660.42 40.2756 662.18 38.0396 662.18V657.433" stroke="white" stroke-width="0.648"/>
<path d="M37.3603 656.996L44.0203 664.881L39.4576 675.009L33.4673 666.413L37.3603 656.996Z" fill="#060606" stroke="#DAD5D5" stroke-width="1.296" stroke-linejoin="round"/>
<path d="M36.1496 650.024C36.1496 651.089 36.2956 659.158 37.387 659.476C38.1171 659.158 39.0669 661.747 37.2177 661.747C35.6255 661.747 34.6 658.04 34.219 653.786C34.0483 651.881 34.1035 650.319 34.4438 649.333C35.02 647.664 40.1097 646.34 40.1097 649.333" fill="black"/>
<path d="M36.1496 650.024C36.1496 651.089 36.2956 659.158 37.387 659.476C38.1171 659.158 39.0669 661.747 37.2177 661.747C35.6255 661.747 34.6 658.04 34.219 653.786C34.0483 651.881 34.1035 650.319 34.4438 649.333C35.02 647.664 40.1097 646.34 40.1097 649.333" stroke="white" stroke-width="0.648"/>
<ellipse rx="3.564" ry="4.86" transform="matrix(-1 0 0 1 32.0323 610.664)" fill="#060606" stroke="white" stroke-width="1.944" stroke-linejoin="round"/>
<ellipse rx="3.564" ry="4.86" transform="matrix(-1 0 0 1 7.40829 623.624)" fill="#060606"/>
<path fill-rule="evenodd" clip-rule="evenodd" d="M143.164 686.789C143.164 686.789 131.287 688.586 120.624 693.739C103.771 701.884 104.227 708.688 86.8703 708.688C79.4893 728.599 75.8329 732.978 75.8329 732.978C75.8329 732.978 69.8404 748.096 69.8404 752.034C69.8404 755.972 52.6666 755.095 52.6666 755.095L49.5682 746.331L62.168 742.348C62.168 742.348 61.3815 732.36 59.7297 727.629C58.0779 722.898 47.6763 695.007 49.5682 681.62" fill="white"/>
<path d="M143.164 686.789C143.164 686.789 131.287 688.586 120.624 693.739C103.771 701.884 104.227 708.688 86.8703 708.688C79.4893 728.599 75.8329 732.978 75.8329 732.978C75.8329 732.978 69.8404 748.096 69.8404 752.034C69.8404 755.972 52.6666 755.095 52.6666 755.095L49.5682 746.331L62.168 742.348C62.168 742.348 61.3815 732.36 59.7297 727.629C58.0779 722.898 47.6763 695.007 49.5682 681.62" stroke="#090909" stroke-width="2.592" stroke-linecap="round" stroke-linejoin="round"/>
<path fill-rule="evenodd" clip-rule="evenodd" d="M135.665 682.916C135.665 682.916 146.354 702.422 156.721 711.852C167.088 721.282 153.183 743.684 153.183 743.684C153.183 743.684 144.831 748.125 144.831 753.222C144.831 758.319 165.302 756.551 165.302 756.551C165.302 756.551 170.755 752.64 168.014 743.684C177.856 732.838 180.752 719.744 180.752 719.744L190.468 686.323" fill="white"/>
<path d="M135.665 682.916C135.665 682.916 146.354 702.422 156.721 711.852C167.088 721.282 153.183 743.684 153.183 743.684C153.183 743.684 144.831 748.125 144.831 753.222C144.831 758.319 165.302 756.551 165.302 756.551C165.302 756.551 170.755 752.64 168.014 743.684C177.856 732.838 180.752 719.744 180.752 719.744L190.468 686.323" stroke="#090909" stroke-width="2.592" stroke-linecap="round" stroke-linejoin="round"/>
<ellipse rx="29.5469" ry="15.8989" transform="matrix(-1 0 0 1 121.272 646.152)" fill="#060606"/>
<ellipse rx="13.8175" ry="19.6974" transform="matrix(-1 0 0 1 166.15 698.859)" fill="#060606"/>
<ellipse rx="20.5756" ry="12.0812" transform="matrix(-1 0 0 1 90.1222 696.651)" fill="#060606"/>
<path d="M58.9782 589.292C58.9782 589.292 59.6488 597.201 53.2776 595.508C46.9063 593.816 38.6387 597.201 37.1175 595.508C35.5963 593.816 33.2932 591.262 37.9338 589.292C42.5744 587.321 58.9782 589.292 58.9782 589.292Z" fill="#060606"/>
<path fill-rule="evenodd" clip-rule="evenodd" d="M197.58 668.033C204.095 665.491 215.598 654.703 210.475 636.857C212.874 638.111 215.598 638.552 219.06 641.469C217.851 630.424 213.607 629.844 211.209 621.232C215.948 620.723 215.948 620.723 219.06 617.869C204.645 603.916 197.58 587.572 172.192 595.796C173.207 598.488 174.371 599.985 176.056 604.209C162.441 598.477 147.068 607.462 147.068 607.462C147.068 607.462 152.552 609.314 153.985 609.952C154.934 613.209 148.234 613.89 148.234 624.395C148.234 634.899 157.408 649.096 161.165 653.699C164.923 658.302 184.774 673.029 197.58 668.033Z" fill="white" stroke="#090909" stroke-width="2.592" stroke-linecap="round" stroke-linejoin="round"/>
<path d="M201.98 606.918C201.428 606.178 206.172 608.864 205.572 608.205C201.443 603.665 195.823 600.769 191.767 599.163C187.712 597.557 176.86 596.904 176.86 596.904C176.86 596.904 194.318 600.445 200.584 606.918C206.85 613.392 210.556 631.896 210.556 631.896C210.556 631.896 208.506 615.666 201.98 606.918Z" fill="#060606"/>
<path d="M160.66 634.964C160.66 634.964 165.191 646.367 169.948 651.22C174.705 656.072 183.988 659.588 183.988 659.588C183.988 659.588 172.432 658.421 167.535 653.425C162.637 648.429 160.66 634.964 160.66 634.964Z" fill="#060606"/>
<path fill-rule="evenodd" clip-rule="evenodd" d="M68.9751 611.635C84.3773 608.822 80.708 576.041 80.708 576.041L63.7313 597.38" fill="white"/>
<path d="M68.9751 611.635C84.3773 608.822 80.708 576.041 80.708 576.041L63.7313 597.38" stroke="#090909" stroke-width="2.592" stroke-linecap="round" stroke-linejoin="round"/>
<path d="M63.5638 605.804C63.5638 605.804 76.1226 587.321 77.9496 587.321C79.7766 587.321 74.734 602.506 72.1671 605.804C69.6002 609.102 63.5638 605.804 63.5638 605.804Z" fill="#060606"/>
<path fill-rule="evenodd" clip-rule="evenodd" d="M381.622 218.851C381.622 218.851 411.044 190.43 413.161 187.263C415.278 184.095 415.278 179.075 415.278 179.075L427.064 183.607C427.064 183.607 426.688 191.137 416.876 202.806C407.063 214.476 391.314 237.557 391.314 237.557L381.622 218.851Z" fill="white" stroke="#090909" stroke-width="4.32" stroke-linejoin="round"/>
<path fill-rule="evenodd" clip-rule="evenodd" d="M291.741 418.877C290.274 419.869 289.239 420.634 288.88 421.035C286.794 423.363 288.64 425.972 289.337 426.884C290.033 427.795 294.457 427.338 294.457 427.338C294.457 427.338 293.459 429.838 294.526 431.52C295.592 433.202 298.764 432.546 298.764 432.546C298.764 432.546 298.301 435.691 299.375 436.749C300.45 437.808 303.271 436.714 303.271 436.714C303.271 436.714 302.969 439.879 305.02 440.835C307.071 441.791 312.377 439.053 313.302 436.401C315.252 435.702 318.779 433.163 322.695 429.402C326.611 425.641 329.615 417.294 329.615 417.294L315.874 404.084C315.874 404.084 301.688 406.815 295.694 410.267C291.871 412.469 291.505 416.353 291.741 418.877Z" fill="white"/>
<path d="M291.741 418.877L292.588 420.13L293.33 419.629L293.246 418.737L291.741 418.877ZM288.88 421.035L287.754 420.026L288.88 421.035ZM289.337 426.884L290.538 425.965L290.538 425.965L289.337 426.884ZM294.457 427.338L295.861 427.898L296.787 425.577L294.301 425.834L294.457 427.338ZM298.764 432.546L300.259 432.766L300.574 430.628L298.457 431.066L298.764 432.546ZM303.271 436.714L304.776 436.857L305.009 434.418L302.724 435.304L303.271 436.714ZM305.02 440.835L304.381 442.206L304.381 442.206L305.02 440.835ZM313.302 436.401L312.792 434.978L312.113 435.221L311.875 435.903L313.302 436.401ZM322.695 429.402L323.742 430.492L322.695 429.402ZM329.615 417.294L331.038 417.806L331.37 416.883L330.663 416.204L329.615 417.294ZM315.874 404.084L316.922 402.994L316.357 402.451L315.588 402.599L315.874 404.084ZM295.694 410.267L294.94 408.957L295.694 410.267ZM290.894 417.625C290.151 418.127 289.503 418.582 288.988 418.968C288.503 419.331 288.044 419.702 287.754 420.026L290.006 422.043C290.075 421.967 290.312 421.755 290.802 421.387C291.261 421.043 291.864 420.619 292.588 420.13L290.894 417.625ZM287.754 420.026C286.298 421.65 286.213 423.447 286.606 424.888C286.976 426.246 287.769 427.322 288.136 427.802L290.538 425.965C290.208 425.534 289.73 424.85 289.524 424.093C289.34 423.42 289.375 422.747 290.006 422.043L287.754 420.026ZM288.136 427.802C288.461 428.228 288.896 428.449 289.197 428.569C289.522 428.699 289.867 428.778 290.182 428.83C290.815 428.936 291.529 428.965 292.158 428.964C292.799 428.964 293.41 428.934 293.856 428.904C294.08 428.889 294.266 428.873 294.397 428.862C294.463 428.856 294.515 428.851 294.551 428.848C294.569 428.846 294.584 428.845 294.594 428.844C294.599 428.843 294.603 428.843 294.606 428.842C294.608 428.842 294.609 428.842 294.61 428.842C294.61 428.842 294.611 428.842 294.611 428.842C294.611 428.842 294.612 428.842 294.612 428.842C294.612 428.842 294.612 428.842 294.457 427.338C294.301 425.834 294.301 425.834 294.302 425.834C294.302 425.834 294.302 425.834 294.302 425.834C294.302 425.834 294.302 425.834 294.302 425.834C294.302 425.834 294.301 425.834 294.301 425.834C294.3 425.834 294.297 425.834 294.294 425.835C294.287 425.835 294.277 425.836 294.262 425.838C294.234 425.84 294.19 425.845 294.133 425.849C294.02 425.859 293.854 425.873 293.653 425.886C293.248 425.914 292.709 425.94 292.157 425.94C291.594 425.941 291.071 425.913 290.679 425.847C290.482 425.815 290.367 425.78 290.316 425.76C290.243 425.731 290.387 425.767 290.538 425.965L288.136 427.802ZM294.457 427.338C293.052 426.777 293.052 426.778 293.052 426.778C293.052 426.778 293.052 426.779 293.052 426.779C293.051 426.78 293.051 426.78 293.051 426.781C293.05 426.783 293.05 426.784 293.049 426.786C293.048 426.789 293.046 426.793 293.044 426.798C293.041 426.808 293.036 426.819 293.031 426.834C293.02 426.862 293.006 426.9 292.99 426.947C292.957 427.04 292.914 427.169 292.867 427.327C292.775 427.64 292.664 428.08 292.594 428.59C292.459 429.554 292.429 431.038 293.249 432.33L295.802 430.71C295.555 430.32 295.491 429.713 295.589 429.006C295.634 428.681 295.706 428.391 295.768 428.183C295.798 428.08 295.825 428 295.842 427.95C295.851 427.925 295.857 427.908 295.861 427.899C295.862 427.895 295.863 427.892 295.863 427.892C295.863 427.892 295.863 427.892 295.863 427.894C295.863 427.894 295.862 427.895 295.862 427.896C295.862 427.896 295.862 427.896 295.862 427.897C295.861 427.897 295.861 427.897 295.861 427.898C295.861 427.898 295.861 427.898 294.457 427.338ZM293.249 432.33C294.205 433.836 295.954 434.123 296.969 434.174C297.537 434.202 298.052 434.166 298.42 434.125C298.606 434.104 298.76 434.081 298.871 434.063C298.927 434.054 298.972 434.046 299.005 434.04C299.022 434.036 299.036 434.034 299.047 434.032C299.052 434.031 299.057 434.03 299.061 434.029C299.062 434.029 299.064 434.028 299.066 434.028C299.066 434.028 299.067 434.028 299.068 434.027C299.068 434.027 299.069 434.027 299.069 434.027C299.069 434.027 299.07 434.027 298.764 432.546C298.457 431.066 298.458 431.066 298.458 431.066C298.458 431.065 298.459 431.065 298.459 431.065C298.459 431.065 298.46 431.065 298.46 431.065C298.461 431.065 298.462 431.065 298.462 431.065C298.463 431.065 298.463 431.065 298.462 431.065C298.461 431.065 298.457 431.066 298.45 431.067C298.436 431.07 298.412 431.074 298.379 431.079C298.313 431.09 298.211 431.106 298.083 431.12C297.823 431.149 297.479 431.172 297.12 431.154C296.283 431.112 295.914 430.885 295.802 430.71L293.249 432.33ZM298.764 432.546C297.268 432.326 297.268 432.327 297.268 432.327C297.268 432.327 297.267 432.327 297.267 432.328C297.267 432.328 297.267 432.329 297.267 432.329C297.267 432.33 297.267 432.332 297.267 432.333C297.266 432.336 297.266 432.34 297.265 432.345C297.264 432.354 297.262 432.366 297.26 432.381C297.256 432.411 297.251 432.452 297.244 432.504C297.232 432.607 297.216 432.751 297.202 432.926C297.172 433.273 297.144 433.754 297.155 434.282C297.165 434.801 297.214 435.413 297.357 436.003C297.495 436.568 297.757 437.278 298.314 437.826L300.437 435.672C300.456 435.692 300.374 435.611 300.296 435.289C300.224 434.992 300.186 434.619 300.178 434.22C300.17 433.829 300.191 433.459 300.215 433.183C300.226 433.046 300.238 432.937 300.247 432.863C300.251 432.827 300.255 432.8 300.257 432.783C300.258 432.775 300.259 432.769 300.259 432.766C300.26 432.765 300.26 432.764 300.26 432.764C300.26 432.764 300.26 432.764 300.26 432.765C300.26 432.765 300.26 432.765 300.26 432.765C300.26 432.766 300.26 432.766 300.259 432.766C300.259 432.766 300.259 432.766 298.764 432.546ZM298.314 437.826C298.916 438.419 299.672 438.626 300.27 438.693C300.878 438.761 301.483 438.703 301.977 438.62C302.48 438.535 302.933 438.413 303.255 438.314C303.418 438.264 303.553 438.219 303.649 438.185C303.697 438.168 303.736 438.154 303.764 438.144C303.778 438.138 303.79 438.134 303.799 438.131C303.803 438.129 303.807 438.128 303.81 438.126C303.812 438.126 303.813 438.125 303.814 438.125C303.815 438.125 303.816 438.124 303.816 438.124C303.816 438.124 303.817 438.124 303.817 438.124C303.817 438.124 303.817 438.124 303.271 436.714C302.724 435.304 302.724 435.304 302.725 435.304C302.725 435.304 302.725 435.304 302.725 435.304C302.725 435.304 302.726 435.304 302.726 435.303C302.727 435.303 302.727 435.303 302.727 435.303C302.727 435.303 302.727 435.303 302.726 435.303C302.724 435.304 302.72 435.306 302.713 435.308C302.7 435.313 302.677 435.321 302.646 435.332C302.584 435.354 302.489 435.386 302.371 435.422C302.131 435.496 301.811 435.581 301.475 435.638C301.129 435.696 300.828 435.713 300.605 435.688C300.371 435.662 300.372 435.608 300.437 435.672L298.314 437.826ZM303.271 436.714C301.766 436.57 301.766 436.571 301.765 436.571C301.765 436.572 301.765 436.572 301.765 436.572C301.765 436.573 301.765 436.574 301.765 436.575C301.765 436.577 301.765 436.579 301.765 436.581C301.764 436.585 301.764 436.59 301.763 436.596C301.762 436.607 301.761 436.622 301.76 436.64C301.757 436.675 301.754 436.722 301.752 436.779C301.746 436.894 301.741 437.052 301.744 437.242C301.748 437.617 301.78 438.139 301.893 438.711C302.108 439.791 302.699 441.422 304.381 442.206L305.659 439.465C305.29 439.293 305.007 438.863 304.859 438.122C304.792 437.782 304.771 437.453 304.768 437.205C304.766 437.083 304.769 436.987 304.772 436.924C304.774 436.893 304.775 436.871 304.776 436.86C304.776 436.854 304.777 436.851 304.777 436.85C304.777 436.85 304.777 436.851 304.776 436.852C304.776 436.852 304.776 436.853 304.776 436.854C304.776 436.855 304.776 436.855 304.776 436.856C304.776 436.856 304.776 436.856 304.776 436.856C304.776 436.857 304.776 436.857 303.271 436.714ZM304.381 442.206C305.329 442.647 306.431 442.589 307.353 442.4C308.322 442.202 309.342 441.808 310.289 441.308C311.239 440.807 312.166 440.172 312.937 439.453C313.692 438.75 314.387 437.883 314.73 436.899L311.875 435.903C311.756 436.245 311.44 436.715 310.876 437.241C310.327 437.752 309.627 438.239 308.878 438.634C308.126 439.031 307.377 439.308 306.747 439.437C306.068 439.576 305.737 439.501 305.659 439.465L304.381 442.206ZM313.813 437.824C315 437.399 316.512 436.483 318.159 435.266C319.836 434.029 321.746 432.41 323.742 430.492L321.648 428.312C319.728 430.155 317.917 431.687 316.363 432.834C314.781 434.002 313.555 434.705 312.792 434.978L313.813 437.824ZM323.742 430.492C325.906 428.414 327.731 425.178 328.984 422.597C329.622 421.283 330.133 420.091 330.485 419.227C330.661 418.795 330.798 418.444 330.891 418.198C330.938 418.076 330.974 417.98 330.998 417.913C331.011 417.88 331.02 417.854 331.027 417.836C331.03 417.827 331.033 417.82 331.034 417.815C331.035 417.812 331.036 417.81 331.037 417.809C331.037 417.808 331.037 417.808 331.037 417.807C331.037 417.807 331.038 417.806 331.038 417.806C331.038 417.806 331.038 417.806 329.615 417.294C328.192 416.782 328.193 416.782 328.193 416.781C328.193 416.781 328.193 416.781 328.193 416.781C328.193 416.781 328.193 416.781 328.192 416.782C328.192 416.782 328.192 416.783 328.191 416.785C328.19 416.788 328.188 416.793 328.186 416.8C328.181 416.813 328.173 416.835 328.162 416.864C328.141 416.921 328.109 417.008 328.066 417.121C327.979 417.347 327.851 417.677 327.684 418.086C327.351 418.905 326.866 420.035 326.263 421.277C325.034 423.81 323.4 426.628 321.648 428.312L323.742 430.492ZM330.663 416.204L316.922 402.994L314.826 405.174L328.567 418.384L330.663 416.204ZM315.874 404.084C315.588 402.599 315.588 402.599 315.588 402.599C315.588 402.599 315.587 402.599 315.587 402.599C315.587 402.599 315.586 402.599 315.585 402.6C315.583 402.6 315.58 402.6 315.576 402.601C315.569 402.603 315.558 402.605 315.544 402.608C315.515 402.613 315.474 402.621 315.42 402.632C315.312 402.653 315.154 402.685 314.951 402.726C314.546 402.809 313.961 402.93 313.242 403.087C311.805 403.4 309.824 403.854 307.652 404.417C303.367 405.529 298.136 407.116 294.94 408.957L296.449 411.577C299.246 409.966 304.105 408.462 308.412 407.345C310.535 406.794 312.476 406.349 313.886 406.042C314.59 405.888 315.161 405.77 315.555 405.689C315.752 405.649 315.904 405.619 316.007 405.598C316.058 405.588 316.097 405.581 316.123 405.576C316.136 405.573 316.145 405.571 316.152 405.57C316.155 405.569 316.157 405.569 316.158 405.569C316.159 405.568 316.16 405.568 316.16 405.568C316.16 405.568 316.16 405.568 316.16 405.568C316.16 405.568 316.16 405.568 315.874 404.084ZM294.94 408.957C290.338 411.607 289.98 416.288 290.236 419.018L293.246 418.737C293.029 416.418 293.403 413.331 296.449 411.577L294.94 408.957Z" fill="#090909"/>
<path d="M302.069 411.882L295.954 414.478L291.273 418.929" stroke="#060606" stroke-width="0.9" stroke-linecap="round" stroke-linejoin="round"/>
<path fill-rule="evenodd" clip-rule="evenodd" d="M406.678 224.529C406.678 224.529 436.246 201.447 455.699 211.001C475.152 220.555 475.865 258.509 475.865 258.509L426.245 344.039L336.695 430.127L303.298 396.227L373.664 314.135L406.678 224.529Z" fill="white" stroke="#090909" stroke-width="4.32"/>
<path d="M438.75 612.45V643.95" stroke="white" stroke-width="3.24" stroke-linecap="round" stroke-linejoin="round"/>
<path d="M539.469 595.35V640.826" stroke="white" stroke-width="3.24" stroke-linecap="round" stroke-linejoin="round"/>
<path d="M499.557 598.371V643.847" stroke="white" stroke-width="3.24" stroke-linecap="round" stroke-linejoin="round"/>
<path fill-rule="evenodd" clip-rule="evenodd" d="M368.887 248.831C364.956 247.089 350.233 247.88 346.829 247.88C343.425 247.88 339.94 253.359 338.162 257.086C336.384 260.812 340.694 265.996 340.694 265.996L339.436 271.405L342.432 276.057C342.432 276.057 341.803 279.736 342.432 280.647C343.062 281.557 346.006 281.23 346.006 281.23L381.36 267.169L378.466 256.381C378.466 256.381 372.817 250.573 368.887 248.831Z" fill="white" stroke="#090909" stroke-width="4.32"/>
<path d="M353.636 259.872L359.175 259.293L365.878 263.092C365.878 263.092 366.318 268.604 368.756 270.093" stroke="#060606" stroke-width="1.08" stroke-linecap="round" stroke-linejoin="round"/>
<path fill-rule="evenodd" clip-rule="evenodd" d="M343.522 282.488C343.522 282.488 357.923 282.564 357.377 278.838C358.244 278.476 362.448 278.822 363.141 278.395C365.994 276.524 363.45 273.894 362.147 273.071C362.538 272.676 367.656 274.101 367.917 273.652C369.219 271.415 369.744 268.265 365.983 266.143C362.223 264.021 354.982 263.581 354.982 263.581L346.511 257.341L339.55 254.676C339.55 254.676 336.972 258.377 337.303 260.91C337.634 263.443 339.935 266.143 339.935 266.143C339.935 266.143 338 269.813 338.481 271.722C338.962 273.631 342.432 276.057 342.432 276.057C342.432 276.057 340.986 277.908 341.432 279.794C341.878 281.68 343.522 282.488 343.522 282.488Z" fill="white" stroke="#090909" stroke-width="2.16"/>
<path d="M367.917 273.652C369.219 271.415 369.744 268.265 365.983 266.143C363.476 264.728 359.809 263.874 354.982 263.581L346.511 257.341" stroke="#060606" stroke-width="1.08" stroke-linecap="round" stroke-linejoin="round"/>
<path fill-rule="evenodd" clip-rule="evenodd" d="M366.663 262.665C362.07 260.964 361.045 257.406 358.42 258.05C347.152 260.816 345.31 255.579 345.31 254.413C345.31 251.846 358.42 249.346 358.42 249.346L367.165 250.093" fill="white"/>
<path d="M366.663 262.665C362.07 260.964 361.045 257.406 358.42 258.05C347.152 260.816 345.31 255.579 345.31 254.413C345.31 251.846 358.42 249.346 358.42 249.346L367.165 250.093" stroke="#090909" stroke-width="2.16" stroke-linecap="round" stroke-linejoin="round"/>
<path d="M344.23 268.583L354.173 272.691L367.595 273.652" stroke="#060606" stroke-width="1.08" stroke-linecap="round" stroke-linejoin="round"/>
<path d="M342.836 275.126L348.711 278.366H356.876" stroke="#060606" stroke-width="1.08" stroke-linecap="round" stroke-linejoin="round"/>
</svg>
